<?xml version="1.0" standalone="no"?>
<!DOCTYPE svg PUBLIC "-//W3C//DTD SVG 20010904//EN"
 "http://www.w3.org/TR/2001/REC-SVG-20010904/DTD/svg10.dtd">
<svg version="1.0" xmlns="http://www.w3.org/2000/svg"
 width="225.000000pt" height="225.000000pt" viewBox="0 0 225.000000 225.000000"
 preserveAspectRatio="xMidYMid meet">

<g transform="translate(0.000000,225.000000) scale(0.100000,-0.100000)"
fill="#000000" stroke="none">
<path d="M815 1630 l-77 -110 -194 0 c-115 0 -203 -4 -215 -10 -48 -26 -49
-40 -49 -500 0 -469 1 -480 56 -500 15 -6 331 -10 800 -10 l776 0 29 29 29 29
0 451 0 450 -23 27 c-15 17 -38 29 -63 33 -35 6 -40 10 -44 40 -6 43 -29 59
-67 45 -23 -8 -29 -16 -31 -47 l-3 -37 -114 0 -113 0 -74 110 -73 109 -237 1
-237 0 -76 -110z m593 -50 l74 -110 203 0 c172 0 206 -2 219 -16 14 -14 16
-67 16 -441 0 -383 -2 -428 -17 -445 -15 -17 -53 -18 -778 -18 -578 0 -764 3
-773 12 -17 17 -17 879 0 896 9 9 70 12 214 12 l203 0 26 38 c14 20 49 70 76
110 l50 72 207 0 207 -1 73 -109z"/>
<path d="M967 1654 c-14 -14 -8 -161 7 -173 9 -8 61 -11 162 -9 l149 3 0 90 0
90 -156 3 c-85 1 -158 -1 -162 -4z m273 -89 l0 -45 -115 0 -115 0 0 45 0 45
115 0 115 0 0 -45z"/>
<path d="M993 1349 c-29 -11 -77 -42 -106 -69 -196 -179 -154 -471 85 -597 48
-25 63 -28 153 -28 89 0 106 3 157 28 34 17 78 51 111 86 165 178 109 467
-111 569 -78 37 -212 42 -289 11z m265 -58 c65 -33 118 -87 149 -149 57 -116
27 -271 -69 -357 -154 -140 -391 -99 -485 84 -29 55 -33 72 -33 140 0 67 4 87
31 139 35 72 91 123 163 152 68 27 182 23 244 -9z"/>
<path d="M1056 1228 c-52 -14 -131 -92 -145 -144 -15 -53 -14 -91 2 -97 22 -8
33 5 40 46 13 81 70 135 160 151 32 6 38 11 35 29 -4 26 -33 31 -92 15z"/>
</g>
</svg>
